<?xml version="1.0" encoding="utf-8"?>
<!-- Generator: Fusion 360, Shaper Origin Export Add-In, Version 1.6.10  -->
<svg xmlns="http://www.w3.org/2000/svg" xmlns:xlink="http://www.w3.org/1999/xlink" xmlns:shaper="http://www.shapertools.com/namespaces/shaper" shaper:fusionaddin="version:1.6.10" width="21.5cm" height="21.5cm" version="1.1" x="0cm" y="0cm" viewBox="0 0 21.5 21.5" enable-background="new 0 0 21.5 21.5" xml:space="preserve"><path d="M-11.1504381,-0.1301102 a10.75,10.75 0 1,1 21.5,0 a10.75,10.75 0 1,1 -21.5,0z" transform="matrix(1,0,0,-1,11.1504381,10.6198898)" fill="rgb(0,0,0)" shaper:cutDepth="0.01" stroke-linecap="round" stroke-linejoin="round" /><path d="M-9.7422032,4.5390227 a0.1887486,0.1887486 0 1,1 0.3774971,0 a0.1887486,0.1887486 0 1,1 -0.3774971,0z" transform="matrix(1,0,0,-1,11.1504381,10.6198898)" fill="rgb(255,255,255)" stroke="rgb(0,0,0)" stroke-width="0.0010cm" stroke-linecap="round" stroke-linejoin="round" shaper:cutDepth="0.01" /><path d="M-9.2967016,5.205763 a0.1887486,0.1887486 0 1,1 0.3774971,0 a0.1887486,0.1887486 0 1,1 -0.3774971,0z" transform="matrix(1,0,0,-1,11.1504381,10.6198898)" fill="rgb(255,255,255)" stroke="rgb(0,0,0)" stroke-width="0.0010cm" stroke-linecap="round" stroke-linejoin="round" shaper:cutDepth="0.01" /><path d="M-8.8512727,5.8726467 a0.1887486,0.1887486 0 1,1 0.3774971,0 a0.1887486,0.1887486 0 1,1 -0.3774971,0z" transform="matrix(1,0,0,-1,11.1504381,10.6198898)" fill="rgb(255,255,255)" stroke="rgb(0,0,0)" stroke-width="0.0010cm" stroke-linecap="round" stroke-linejoin="round" shaper:cutDepth="0.01" /><path d="M-0.7386639,0.4738107 a0.142,0.142 0 1,1 0.284,0 a0.142,0.142 0 1,1 -0.284,0z" transform="matrix(1,0,0,-1,11.1504381,10.6198898)" fill="rgb(255,255,255)" stroke="rgb(0,0,0)" stroke-width="0.0010cm" stroke-linecap="round" stroke-linejoin="round" shaper:cutDepth="0.01" /><path d="M-1.146359,-0.326336 a0.142,0.142 0 1,1 0.284,0 a0.142,0.142 0 1,1 -0.284,0z" transform="matrix(1,0,0,-1,11.1504381,10.6198898)" fill="rgb(255,255,255)" stroke="rgb(0,0,0)" stroke-width="0.0010cm" stroke-linecap="round" stroke-linejoin="round" shaper:cutDepth="0.01" /><path d="M0.0614828,0.0661156 a0.142,0.142 0 1,1 0.284,0 a0.142,0.142 0 1,1 -0.284,0z" transform="matrix(1,0,0,-1,11.1504381,10.6198898)" fill="rgb(255,255,255)" stroke="rgb(0,0,0)" stroke-width="0.0010cm" stroke-linecap="round" stroke-linejoin="round" shaper:cutDepth="0.01" /><path d="M-0.3462123,-0.7340311 a0.142,0.142 0 1,1 0.284,0 a0.142,0.142 0 1,1 -0.284,0z" transform="matrix(1,0,0,-1,11.1504381,10.6198898)" fill="rgb(255,255,255)" stroke="rgb(0,0,0)" stroke-width="0.0010cm" stroke-linecap="round" stroke-linejoin="round" shaper:cutDepth="0.01" /><path d="M-0.7179381,-0.1301102 a0.3175,0.3175 0 1,1 0.635,0 a0.3175,0.3175 0 1,1 -0.635,0z" transform="matrix(1,0,0,-1,11.1504381,10.6198898)" fill="rgb(255,255,255)" stroke="rgb(0,0,0)" stroke-width="0.0010cm" stroke-linecap="round" stroke-linejoin="round" shaper:cutDepth="0.01" /><path d="M-10.0243064,3.7780443 a0.1887486,0.1887486 0 1,1 0.3774971,0 a0.1887486,0.1887486 0 1,1 -0.3774971,0z" transform="matrix(1,0,0,-1,11.1504381,10.6198898)" fill="rgb(255,255,255)" stroke="rgb(0,0,0)" stroke-width="0.0010cm" stroke-linecap="round" stroke-linejoin="round" shaper:cutDepth="0.01" /><path d="M-7.8105146,7.0912178 a0.1887486,0.1887486 0 1,1 0.3774971,0 a0.1887486,0.1887486 0 1,1 -0.3774971,0z" transform="matrix(1,0,0,-1,11.1504381,10.6198898)" fill="rgb(255,255,255)" stroke="rgb(0,0,0)" stroke-width="0.0010cm" stroke-linecap="round" stroke-linejoin="round" shaper:cutDepth="0.01" /><path d="M-4.4973412,9.3050095 a0.1887486,0.1887486 0 1,1 0.3774971,0 a0.1887486,0.1887486 0 1,1 -0.3774971,0z" transform="matrix(1,0,0,-1,11.1504381,10.6198898)" fill="rgb(255,255,255)" stroke="rgb(0,0,0)" stroke-width="0.0010cm" stroke-linecap="round" stroke-linejoin="round" shaper:cutDepth="0.01" /><path d="M-2.9732474,-10.060438 a0.1887486,0.1887486 0 1,1 0.3774971,0 a0.1887486,0.1887486 0 1,1 -0.3774971,0z" transform="matrix(1,0,0,-1,11.1504381,10.6198898)" fill="rgb(255,255,255)" stroke="rgb(0,0,0)" stroke-width="0.0010cm" stroke-linecap="round" stroke-linejoin="round" shaper:cutDepth="0.01" /><path d="M-8.8535357,-4.8365702 A0.7166667,0.7166667 209.1078974 0,1 -7.8061342,-5.0677391 L-2.6061113,-1.2897012 A1.4333333,1.4333333 306 0,1 -2.6061113,1.0294808 L-7.8061342,4.8075186 A0.7166667,0.7166667 54 0,1 -8.8535357,4.5763498 A9.675,9.675 150.8921026 0,1 -8.8535357,-4.8365702z" transform="matrix(1,0,0,-1,11.1504381,10.6198898)" fill="rgb(255,255,255)" stroke="rgb(0,0,0)" stroke-width="0.0010cm" stroke-linecap="round" stroke-linejoin="round" shaper:cutDepth="0.01" /><path d="M3.6718738,-8.9063225 A0.7166667,0.7166667 294.8921026 0,0 2.6886305,-8.4776948 L0.7023985,-2.3647012 A1.4333333,1.4333333 198 0,0 2.0655795,-0.4884436 L8.4931614,-0.4884436 A0.7166667,0.7166667 90 0,0 9.2046493,-1.2911102 A9.675,9.675 353.1078974 0,0 3.6718738,-8.9063225z" transform="matrix(1,0,0,-1,11.1504381,10.6198898)" fill="rgb(255,255,255)" stroke="rgb(0,0,0)" stroke-width="0.0010cm" stroke-linecap="round" stroke-linejoin="round" shaper:cutDepth="0.01" /><path d="M-4.4973412,-9.5652299 a0.1887486,0.1887486 0 1,1 0.3774971,0 a0.1887486,0.1887486 0 1,1 -0.3774971,0z" transform="matrix(1,0,0,-1,11.1504381,10.6198898)" fill="rgb(255,255,255)" stroke="rgb(0,0,0)" stroke-width="0.0010cm" stroke-linecap="round" stroke-linejoin="round" shaper:cutDepth="0.01" /><path d="M9.2046493,1.0308898 A0.7166667,0.7166667 6.8921026 0,0 8.4931614,0.2282231 L2.0655795,0.2282231 A1.4333333,1.4333333 270 0,0 0.7023985,2.1044808 L2.6886305,8.2174744 A0.7166667,0.7166667 162 0,0 3.6718738,8.646102 A9.675,9.675 65.1078974 0,0 9.2046493,1.0308898z" transform="matrix(1,0,0,-1,11.1504381,10.6198898)" fill="rgb(255,255,255)" stroke="rgb(0,0,0)" stroke-width="0.0010cm" stroke-linecap="round" stroke-linejoin="round" shaper:cutDepth="0.01" /><path d="M-10.3018513,3.0257258 a0.1887486,0.1887486 0 1,1 0.3774971,0 a0.1887486,0.1887486 0 1,1 -0.3774971,0z" transform="matrix(1,0,0,-1,11.1504381,10.6198898)" fill="rgb(255,255,255)" stroke="rgb(0,0,0)" stroke-width="0.0010cm" stroke-linecap="round" stroke-linejoin="round" shaper:cutDepth="0.01" /><path d="M-9.6885908,-4.7664882 a0.1887486,0.1887486 0 1,1 0.3774971,0 a0.1887486,0.1887486 0 1,1 -0.3774971,0z" transform="matrix(1,0,0,-1,11.1504381,10.6198898)" fill="rgb(255,255,255)" stroke="rgb(0,0,0)" stroke-width="0.0010cm" stroke-linecap="round" stroke-linejoin="round" shaper:cutDepth="0.01" /><path d="M-1.3904502,-10.3111285 a0.1887486,0.1887486 0 1,1 0.3774971,0 a0.1887486,0.1887486 0 1,1 -0.3774971,0z" transform="matrix(1,0,0,-1,11.1504381,10.6198898)" fill="rgb(255,255,255)" stroke="rgb(0,0,0)" stroke-width="0.0010cm" stroke-linecap="round" stroke-linejoin="round" shaper:cutDepth="0.01" /><path d="M1.7948741,-10.060438 a0.1887486,0.1887486 0 1,1 0.3774971,0 a0.1887486,0.1887486 0 1,1 -0.3774971,0z" transform="matrix(1,0,0,-1,11.1504381,10.6198898)" fill="rgb(255,255,255)" stroke="rgb(0,0,0)" stroke-width="0.0010cm" stroke-linecap="round" stroke-linejoin="round" shaper:cutDepth="0.01" /><path d="M1.4635205,9.3636395 A0.7166667,0.7166667 78.8921026 0,0 2.00704,8.4389366 L0.020808,2.325943 A1.4333333,1.4333333 342 0,0 -2.1848652,1.6092763 L-7.3848881,5.3873141 A0.7166667,0.7166667 234 0,0 -7.4886983,6.4548872 A9.675,9.675 137.1078974 0,0 1.4635205,9.3636395z" transform="matrix(1,0,0,-1,11.1504381,10.6198898)" fill="rgb(255,255,255)" stroke="rgb(0,0,0)" stroke-width="0.0010cm" stroke-linecap="round" stroke-linejoin="round" shaper:cutDepth="0.01" /><path d="M-10.6759538,-1.7276972 a0.1887486,0.1887486 0 1,1 0.3774971,0 a0.1887486,0.1887486 0 1,1 -0.3774971,0z" transform="matrix(1,0,0,-1,11.1504381,10.6198898)" fill="rgb(255,255,255)" stroke="rgb(0,0,0)" stroke-width="0.0010cm" stroke-linecap="round" stroke-linejoin="round" shaper:cutDepth="0.01" /><path d="M-2.1867736,9.956657 a0.1887486,0.1887486 0 1,1 0.3774971,0 a0.1887486,0.1887486 0 1,1 -0.3774971,0z" transform="matrix(1,0,0,-1,11.1504381,10.6198898)" fill="rgb(255,255,255)" stroke="rgb(0,0,0)" stroke-width="0.0010cm" stroke-linecap="round" stroke-linejoin="round" shaper:cutDepth="0.01" /><path d="M-10.3018513,-3.2859463 a0.1887486,0.1887486 0 1,1 0.3774971,0 a0.1887486,0.1887486 0 1,1 -0.3774971,0z" transform="matrix(1,0,0,-1,11.1504381,10.6198898)" fill="rgb(255,255,255)" stroke="rgb(0,0,0)" stroke-width="0.0010cm" stroke-linecap="round" stroke-linejoin="round" shaper:cutDepth="0.01" /><path d="M1.4635205,-9.6238599 A0.7166667,0.7166667 281.1078974 0,1 2.00704,-8.699157 L0.020808,-2.5861634 A1.4333333,1.4333333 18 0,1 -2.1848652,-1.8694968 L-7.3848881,-5.6475346 A0.7166667,0.7166667 126 0,1 -7.4886983,-6.7151077 A9.675,9.675 222.8921026 0,1 1.4635205,-9.6238599z" transform="matrix(1,0,0,-1,11.1504381,10.6198898)" fill="rgb(255,255,255)" stroke="rgb(0,0,0)" stroke-width="0.0010cm" stroke-linecap="round" stroke-linejoin="round" shaper:cutDepth="0.01" /><path d="M0.2120769,10.0509081 a0.1887486,0.1887486 0 1,1 0.3774971,0 a0.1887486,0.1887486 0 1,1 -0.3774971,0z" transform="matrix(1,0,0,-1,11.1504381,10.6198898)" fill="rgb(255,255,255)" stroke="rgb(0,0,0)" stroke-width="0.0010cm" stroke-linecap="round" stroke-linejoin="round" shaper:cutDepth="0.01" /><path d="M-5.9252032,8.5774775 a0.1887486,0.1887486 0 1,1 0.3774971,0 a0.1887486,0.1887486 0 1,1 -0.3774971,0z" transform="matrix(1,0,0,-1,11.1504381,10.6198898)" fill="rgb(255,255,255)" stroke="rgb(0,0,0)" stroke-width="0.0010cm" stroke-linecap="round" stroke-linejoin="round" shaper:cutDepth="0.01" /><path d="M-0.5891866,10.0823898 a0.1887486,0.1887486 0 1,1 0.3774971,0 a0.1887486,0.1887486 0 1,1 -0.3774971,0z" transform="matrix(1,0,0,-1,11.1504381,10.6198898)" fill="rgb(255,255,255)" stroke="rgb(0,0,0)" stroke-width="0.0010cm" stroke-linecap="round" stroke-linejoin="round" shaper:cutDepth="0.01" /><path d="M-7.2216748,-7.8957561 a0.1887486,0.1887486 0 1,1 0.3774971,0 a0.1887486,0.1887486 0 1,1 -0.3774971,0z" transform="matrix(1,0,0,-1,11.1504381,10.6198898)" fill="rgb(255,255,255)" stroke="rgb(0,0,0)" stroke-width="0.0010cm" stroke-linecap="round" stroke-linejoin="round" shaper:cutDepth="0.01" /><path d="M-6.5919435,8.1319758 a0.1887486,0.1887486 0 1,1 0.3774971,0 a0.1887486,0.1887486 0 1,1 -0.3774971,0z" transform="matrix(1,0,0,-1,11.1504381,10.6198898)" fill="rgb(255,255,255)" stroke="rgb(0,0,0)" stroke-width="0.0010cm" stroke-linecap="round" stroke-linejoin="round" shaper:cutDepth="0.01" /><path d="M-8.8512727,-6.1328671 a0.1887486,0.1887486 0 1,1 0.3774971,0 a0.1887486,0.1887486 0 1,1 -0.3774971,0z" transform="matrix(1,0,0,-1,11.1504381,10.6198898)" fill="rgb(255,255,255)" stroke="rgb(0,0,0)" stroke-width="0.0010cm" stroke-linecap="round" stroke-linejoin="round" shaper:cutDepth="0.01" /><path d="M-1.3904502,10.0509081 a0.1887486,0.1887486 0 1,1 0.3774971,0 a0.1887486,0.1887486 0 1,1 -0.3774971,0z" transform="matrix(1,0,0,-1,11.1504381,10.6198898)" fill="rgb(255,255,255)" stroke="rgb(0,0,0)" stroke-width="0.0010cm" stroke-linecap="round" stroke-linejoin="round" shaper:cutDepth="0.01" /><path d="M-5.2255646,8.9692939 a0.1887486,0.1887486 0 1,1 0.3774971,0 a0.1887486,0.1887486 0 1,1 -0.3774971,0z" transform="matrix(1,0,0,-1,11.1504381,10.6198898)" fill="rgb(255,255,255)" stroke="rgb(0,0,0)" stroke-width="0.0010cm" stroke-linecap="round" stroke-linejoin="round" shaper:cutDepth="0.01" /><path d="M-8.3548326,6.502378 a0.1887486,0.1887486 0 1,1 0.3774971,0 a0.1887486,0.1887486 0 1,1 -0.3774971,0z" transform="matrix(1,0,0,-1,11.1504381,10.6198898)" fill="rgb(255,255,255)" stroke="rgb(0,0,0)" stroke-width="0.0010cm" stroke-linecap="round" stroke-linejoin="round" shaper:cutDepth="0.01" /><path d="M0.2120769,-10.3111285 a0.1887486,0.1887486 0 1,1 0.3774971,0 a0.1887486,0.1887486 0 1,1 -0.3774971,0z" transform="matrix(1,0,0,-1,11.1504381,10.6198898)" fill="rgb(255,255,255)" stroke="rgb(0,0,0)" stroke-width="0.0010cm" stroke-linecap="round" stroke-linejoin="round" shaper:cutDepth="0.01" /><path d="M-10.8016866,-0.1301102 a0.1887486,0.1887486 0 1,1 0.3774971,0 a0.1887486,0.1887486 0 1,1 -0.3774971,0z" transform="matrix(1,0,0,-1,11.1504381,10.6198898)" fill="rgb(255,255,255)" stroke="rgb(0,0,0)" stroke-width="0.0010cm" stroke-linecap="round" stroke-linejoin="round" shaper:cutDepth="0.01" /><path d="M-3.7450227,-9.8427749 a0.1887486,0.1887486 0 1,1 0.3774971,0 a0.1887486,0.1887486 0 1,1 -0.3774971,0z" transform="matrix(1,0,0,-1,11.1504381,10.6198898)" fill="rgb(255,255,255)" stroke="rgb(0,0,0)" stroke-width="0.0010cm" stroke-linecap="round" stroke-linejoin="round" shaper:cutDepth="0.01" /><path d="M-2.1867736,-10.2168774 a0.1887486,0.1887486 0 1,1 0.3774971,0 a0.1887486,0.1887486 0 1,1 -0.3774971,0z" transform="matrix(1,0,0,-1,11.1504381,10.6198898)" fill="rgb(255,255,255)" stroke="rgb(0,0,0)" stroke-width="0.0010cm" stroke-linecap="round" stroke-linejoin="round" shaper:cutDepth="0.01" /><path d="M-6.5919435,-8.3921963 a0.1887486,0.1887486 0 1,1 0.3774971,0 a0.1887486,0.1887486 0 1,1 -0.3774971,0z" transform="matrix(1,0,0,-1,11.1504381,10.6198898)" fill="rgb(255,255,255)" stroke="rgb(0,0,0)" stroke-width="0.0010cm" stroke-linecap="round" stroke-linejoin="round" shaper:cutDepth="0.01" /><path d="M-2.9732474,9.8002176 a0.1887486,0.1887486 0 1,1 0.3774971,0 a0.1887486,0.1887486 0 1,1 -0.3774971,0z" transform="matrix(1,0,0,-1,11.1504381,10.6198898)" fill="rgb(255,255,255)" stroke="rgb(0,0,0)" stroke-width="0.0010cm" stroke-linecap="round" stroke-linejoin="round" shaper:cutDepth="0.01" /><path d="M-0.5891866,-10.3426102 a0.1887486,0.1887486 0 1,1 0.3774971,0 a0.1887486,0.1887486 0 1,1 -0.3774971,0z" transform="matrix(1,0,0,-1,11.1504381,10.6198898)" fill="rgb(255,255,255)" stroke="rgb(0,0,0)" stroke-width="0.0010cm" stroke-linecap="round" stroke-linejoin="round" shaper:cutDepth="0.01" /><path d="M1.0084003,-10.2168774 a0.1887486,0.1887486 0 1,1 0.3774971,0 a0.1887486,0.1887486 0 1,1 -0.3774971,0z" transform="matrix(1,0,0,-1,11.1504381,10.6198898)" fill="rgb(255,255,255)" stroke="rgb(0,0,0)" stroke-width="0.0010cm" stroke-linecap="round" stroke-linejoin="round" shaper:cutDepth="0.01" /><path d="M6.0433016,7.6355357 a0.1887486,0.1887486 0 1,1 0.3774971,0 a0.1887486,0.1887486 0 1,1 -0.3774971,0z" transform="matrix(1,0,0,-1,11.1504381,10.6198898)" fill="rgb(255,255,255)" stroke="rgb(0,0,0)" stroke-width="0.0010cm" stroke-linecap="round" stroke-linejoin="round" shaper:cutDepth="0.01" /><path d="M7.6728994,-6.1328671 a0.1887486,0.1887486 0 1,1 0.3774971,0 a0.1887486,0.1887486 0 1,1 -0.3774971,0z" transform="matrix(1,0,0,-1,11.1504381,10.6198898)" fill="rgb(255,255,255)" stroke="rgb(0,0,0)" stroke-width="0.0010cm" stroke-linecap="round" stroke-linejoin="round" shaper:cutDepth="0.01" /><path d="M4.74683,8.5774775 a0.1887486,0.1887486 0 1,1 0.3774971,0 a0.1887486,0.1887486 0 1,1 -0.3774971,0z" transform="matrix(1,0,0,-1,11.1504381,10.6198898)" fill="rgb(255,255,255)" stroke="rgb(0,0,0)" stroke-width="0.0010cm" stroke-linecap="round" stroke-linejoin="round" shaper:cutDepth="0.01" /><path d="M9.6233134,-0.1301102 a0.1887486,0.1887486 0 1,1 0.3774971,0 a0.1887486,0.1887486 0 1,1 -0.3774971,0z" transform="matrix(1,0,0,-1,11.1504381,10.6198898)" fill="rgb(255,255,255)" stroke="rgb(0,0,0)" stroke-width="0.0010cm" stroke-linecap="round" stroke-linejoin="round" shaper:cutDepth="0.01" /><path d="M8.5102175,-4.7664882 a0.1887486,0.1887486 0 1,1 0.3774971,0 a0.1887486,0.1887486 0 1,1 -0.3774971,0z" transform="matrix(1,0,0,-1,11.1504381,10.6198898)" fill="rgb(255,255,255)" stroke="rgb(0,0,0)" stroke-width="0.0010cm" stroke-linecap="round" stroke-linejoin="round" shaper:cutDepth="0.01" /><path d="M2.5666494,9.5825545 a0.1887486,0.1887486 0 1,1 0.3774971,0 a0.1887486,0.1887486 0 1,1 -0.3774971,0z" transform="matrix(1,0,0,-1,11.1504381,10.6198898)" fill="rgb(255,255,255)" stroke="rgb(0,0,0)" stroke-width="0.0010cm" stroke-linecap="round" stroke-linejoin="round" shaper:cutDepth="0.01" /><path d="M4.0471913,8.9692939 a0.1887486,0.1887486 0 1,1 0.3774971,0 a0.1887486,0.1887486 0 1,1 -0.3774971,0z" transform="matrix(1,0,0,-1,11.1504381,10.6198898)" fill="rgb(255,255,255)" stroke="rgb(0,0,0)" stroke-width="0.0010cm" stroke-linecap="round" stroke-linejoin="round" shaper:cutDepth="0.01" /><path d="M5.4135703,8.1319758 a0.1887486,0.1887486 0 1,1 0.3774971,0 a0.1887486,0.1887486 0 1,1 -0.3774971,0z" transform="matrix(1,0,0,-1,11.1504381,10.6198898)" fill="rgb(255,255,255)" stroke="rgb(0,0,0)" stroke-width="0.0010cm" stroke-linecap="round" stroke-linejoin="round" shaper:cutDepth="0.01" /><path d="M4.0471913,-9.2295143 a0.1887486,0.1887486 0 1,1 0.3774971,0 a0.1887486,0.1887486 0 1,1 -0.3774971,0z" transform="matrix(1,0,0,-1,11.1504381,10.6198898)" fill="rgb(255,255,255)" stroke="rgb(0,0,0)" stroke-width="0.0010cm" stroke-linecap="round" stroke-linejoin="round" shaper:cutDepth="0.01" /><path d="M5.4135703,-8.3921963 a0.1887486,0.1887486 0 1,1 0.3774971,0 a0.1887486,0.1887486 0 1,1 -0.3774971,0z" transform="matrix(1,0,0,-1,11.1504381,10.6198898)" fill="rgb(255,255,255)" stroke="rgb(0,0,0)" stroke-width="0.0010cm" stroke-linecap="round" stroke-linejoin="round" shaper:cutDepth="0.01" /><path d="M3.3189679,-9.5652299 a0.1887486,0.1887486 0 1,1 0.3774971,0 a0.1887486,0.1887486 0 1,1 -0.3774971,0z" transform="matrix(1,0,0,-1,11.1504381,10.6198898)" fill="rgb(255,255,255)" stroke="rgb(0,0,0)" stroke-width="0.0010cm" stroke-linecap="round" stroke-linejoin="round" shaper:cutDepth="0.01" /><path d="M8.118401,5.2059064 a0.1887486,0.1887486 0 1,1 0.3774971,0 a0.1887486,0.1887486 0 1,1 -0.3774971,0z" transform="matrix(1,0,0,-1,11.1504381,10.6198898)" fill="rgb(255,255,255)" stroke="rgb(0,0,0)" stroke-width="0.0010cm" stroke-linecap="round" stroke-linejoin="round" shaper:cutDepth="0.01" /><path d="M9.123478,3.0257258 a0.1887486,0.1887486 0 1,1 0.3774971,0 a0.1887486,0.1887486 0 1,1 -0.3774971,0z" transform="matrix(1,0,0,-1,11.1504381,10.6198898)" fill="rgb(255,255,255)" stroke="rgb(0,0,0)" stroke-width="0.0010cm" stroke-linecap="round" stroke-linejoin="round" shaper:cutDepth="0.01" /><path d="M9.5918316,0.6711533 a0.1887486,0.1887486 0 1,1 0.3774971,0 a0.1887486,0.1887486 0 1,1 -0.3774971,0z" transform="matrix(1,0,0,-1,11.1504381,10.6198898)" fill="rgb(255,255,255)" stroke="rgb(0,0,0)" stroke-width="0.0010cm" stroke-linecap="round" stroke-linejoin="round" shaper:cutDepth="0.01" /><path d="M8.5102175,4.5062678 a0.1887486,0.1887486 0 1,1 0.3774971,0 a0.1887486,0.1887486 0 1,1 -0.3774971,0z" transform="matrix(1,0,0,-1,11.1504381,10.6198898)" fill="rgb(255,255,255)" stroke="rgb(0,0,0)" stroke-width="0.0010cm" stroke-linecap="round" stroke-linejoin="round" shaper:cutDepth="0.01" /><path d="M2.5666494,-9.8427749 a0.1887486,0.1887486 0 1,1 0.3774971,0 a0.1887486,0.1887486 0 1,1 -0.3774971,0z" transform="matrix(1,0,0,-1,11.1504381,10.6198898)" fill="rgb(255,255,255)" stroke="rgb(0,0,0)" stroke-width="0.0010cm" stroke-linecap="round" stroke-linejoin="round" shaper:cutDepth="0.01" /><path d="M9.3411412,-2.514171 a0.1887486,0.1887486 0 1,1 0.3774971,0 a0.1887486,0.1887486 0 1,1 -0.3774971,0z" transform="matrix(1,0,0,-1,11.1504381,10.6198898)" fill="rgb(255,255,255)" stroke="rgb(0,0,0)" stroke-width="0.0010cm" stroke-linecap="round" stroke-linejoin="round" shaper:cutDepth="0.01" /><path d="M7.1764593,6.502378 a0.1887486,0.1887486 0 1,1 0.3774971,0 a0.1887486,0.1887486 0 1,1 -0.3774971,0z" transform="matrix(1,0,0,-1,11.1504381,10.6198898)" fill="rgb(255,255,255)" stroke="rgb(0,0,0)" stroke-width="0.0010cm" stroke-linecap="round" stroke-linejoin="round" shaper:cutDepth="0.01" /><path d="M-10.5195144,-2.514171 a0.1887486,0.1887486 0 1,1 0.3774971,0 a0.1887486,0.1887486 0 1,1 -0.3774971,0z" transform="matrix(1,0,0,-1,11.1504381,10.6198898)" fill="rgb(255,255,255)" stroke="rgb(0,0,0)" stroke-width="0.0010cm" stroke-linecap="round" stroke-linejoin="round" shaper:cutDepth="0.01" /><path d="M-9.2967743,-5.4661268 a0.1887486,0.1887486 0 1,1 0.3774971,0 a0.1887486,0.1887486 0 1,1 -0.3774971,0z" transform="matrix(1,0,0,-1,11.1504381,10.6198898)" fill="rgb(255,255,255)" stroke="rgb(0,0,0)" stroke-width="0.0010cm" stroke-linecap="round" stroke-linejoin="round" shaper:cutDepth="0.01" /><path d="M-10.7702049,-0.9313737 a0.1887486,0.1887486 0 1,1 0.3774971,0 a0.1887486,0.1887486 0 1,1 -0.3774971,0z" transform="matrix(1,0,0,-1,11.1504381,10.6198898)" fill="rgb(255,255,255)" stroke="rgb(0,0,0)" stroke-width="0.0010cm" stroke-linecap="round" stroke-linejoin="round" shaper:cutDepth="0.01" /><path d="M8.8459331,3.7780443 a0.1887486,0.1887486 0 1,1 0.3774971,0 a0.1887486,0.1887486 0 1,1 -0.3774971,0z" transform="matrix(1,0,0,-1,11.1504381,10.6198898)" fill="rgb(255,255,255)" stroke="rgb(0,0,0)" stroke-width="0.0010cm" stroke-linecap="round" stroke-linejoin="round" shaper:cutDepth="0.01" /><path d="M6.6321414,7.0912178 a0.1887486,0.1887486 0 1,1 0.3774971,0 a0.1887486,0.1887486 0 1,1 -0.3774971,0z" transform="matrix(1,0,0,-1,11.1504381,10.6198898)" fill="rgb(255,255,255)" stroke="rgb(0,0,0)" stroke-width="0.0010cm" stroke-linecap="round" stroke-linejoin="round" shaper:cutDepth="0.01" /><path d="M9.4975805,-1.7276972 a0.1887486,0.1887486 0 1,1 0.3774971,0 a0.1887486,0.1887486 0 1,1 -0.3774971,0z" transform="matrix(1,0,0,-1,11.1504381,10.6198898)" fill="rgb(255,255,255)" stroke="rgb(0,0,0)" stroke-width="0.0010cm" stroke-linecap="round" stroke-linejoin="round" shaper:cutDepth="0.01" /><path d="M9.123478,-3.2859463 a0.1887486,0.1887486 0 1,1 0.3774971,0 a0.1887486,0.1887486 0 1,1 -0.3774971,0z" transform="matrix(1,0,0,-1,11.1504381,10.6198898)" fill="rgb(255,255,255)" stroke="rgb(0,0,0)" stroke-width="0.0010cm" stroke-linecap="round" stroke-linejoin="round" shaper:cutDepth="0.01" /><path d="M-5.2255646,-9.2295143 a0.1887486,0.1887486 0 1,1 0.3774971,0 a0.1887486,0.1887486 0 1,1 -0.3774971,0z" transform="matrix(1,0,0,-1,11.1504381,10.6198898)" fill="rgb(255,255,255)" stroke="rgb(0,0,0)" stroke-width="0.0010cm" stroke-linecap="round" stroke-linejoin="round" shaper:cutDepth="0.01" /><path d="M7.1764593,-6.7625984 a0.1887486,0.1887486 0 1,1 0.3774971,0 a0.1887486,0.1887486 0 1,1 -0.3774971,0z" transform="matrix(1,0,0,-1,11.1504381,10.6198898)" fill="rgb(255,255,255)" stroke="rgb(0,0,0)" stroke-width="0.0010cm" stroke-linecap="round" stroke-linejoin="round" shaper:cutDepth="0.01" /><path d="M8.118401,-5.4661268 a0.1887486,0.1887486 0 1,1 0.3774971,0 a0.1887486,0.1887486 0 1,1 -0.3774971,0z" transform="matrix(1,0,0,-1,11.1504381,10.6198898)" fill="rgb(255,255,255)" stroke="rgb(0,0,0)" stroke-width="0.0010cm" stroke-linecap="round" stroke-linejoin="round" shaper:cutDepth="0.01" /><path d="M6.0433016,-7.8957561 a0.1887486,0.1887486 0 1,1 0.3774971,0 a0.1887486,0.1887486 0 1,1 -0.3774971,0z" transform="matrix(1,0,0,-1,11.1504381,10.6198898)" fill="rgb(255,255,255)" stroke="rgb(0,0,0)" stroke-width="0.0010cm" stroke-linecap="round" stroke-linejoin="round" shaper:cutDepth="0.01" /><path d="M6.6321414,-7.3514382 a0.1887486,0.1887486 0 1,1 0.3774971,0 a0.1887486,0.1887486 0 1,1 -0.3774971,0z" transform="matrix(1,0,0,-1,11.1504381,10.6198898)" fill="rgb(255,255,255)" stroke="rgb(0,0,0)" stroke-width="0.0010cm" stroke-linecap="round" stroke-linejoin="round" shaper:cutDepth="0.01" /><path d="M-10.6759538,1.4674768 a0.1887486,0.1887486 0 1,1 0.3774971,0 a0.1887486,0.1887486 0 1,1 -0.3774971,0z" transform="matrix(1,0,0,-1,11.1504381,10.6198898)" fill="rgb(255,255,255)" stroke="rgb(0,0,0)" stroke-width="0.0010cm" stroke-linecap="round" stroke-linejoin="round" shaper:cutDepth="0.01" /><path d="M9.4975805,1.4674768 a0.1887486,0.1887486 0 1,1 0.3774971,0 a0.1887486,0.1887486 0 1,1 -0.3774971,0z" transform="matrix(1,0,0,-1,11.1504381,10.6198898)" fill="rgb(255,255,255)" stroke="rgb(0,0,0)" stroke-width="0.0010cm" stroke-linecap="round" stroke-linejoin="round" shaper:cutDepth="0.01" /><path d="M7.6728994,5.8726467 a0.1887486,0.1887486 0 1,1 0.3774971,0 a0.1887486,0.1887486 0 1,1 -0.3774971,0z" transform="matrix(1,0,0,-1,11.1504381,10.6198898)" fill="rgb(255,255,255)" stroke="rgb(0,0,0)" stroke-width="0.0010cm" stroke-linecap="round" stroke-linejoin="round" shaper:cutDepth="0.01" /><path d="M8.8459331,-4.0382648 a0.1887486,0.1887486 0 1,1 0.3774971,0 a0.1887486,0.1887486 0 1,1 -0.3774971,0z" transform="matrix(1,0,0,-1,11.1504381,10.6198898)" fill="rgb(255,255,255)" stroke="rgb(0,0,0)" stroke-width="0.0010cm" stroke-linecap="round" stroke-linejoin="round" shaper:cutDepth="0.01" /><path d="M4.74683,-8.8376979 a0.1887486,0.1887486 0 1,1 0.3774971,0 a0.1887486,0.1887486 0 1,1 -0.3774971,0z" transform="matrix(1,0,0,-1,11.1504381,10.6198898)" fill="rgb(255,255,255)" stroke="rgb(0,0,0)" stroke-width="0.0010cm" stroke-linecap="round" stroke-linejoin="round" shaper:cutDepth="0.01" /><path d="M1.0084003,9.956657 a0.1887486,0.1887486 0 1,1 0.3774971,0 a0.1887486,0.1887486 0 1,1 -0.3774971,0z" transform="matrix(1,0,0,-1,11.1504381,10.6198898)" fill="rgb(255,255,255)" stroke="rgb(0,0,0)" stroke-width="0.0010cm" stroke-linecap="round" stroke-linejoin="round" shaper:cutDepth="0.01" /><path d="M-10.7702049,0.6711533 a0.1887486,0.1887486 0 1,1 0.3774971,0 a0.1887486,0.1887486 0 1,1 -0.3774971,0z" transform="matrix(1,0,0,-1,11.1504381,10.6198898)" fill="rgb(255,255,255)" stroke="rgb(0,0,0)" stroke-width="0.0010cm" stroke-linecap="round" stroke-linejoin="round" shaper:cutDepth="0.01" /><path d="M-3.7450227,9.5825545 a0.1887486,0.1887486 0 1,1 0.3774971,0 a0.1887486,0.1887486 0 1,1 -0.3774971,0z" transform="matrix(1,0,0,-1,11.1504381,10.6198898)" fill="rgb(255,255,255)" stroke="rgb(0,0,0)" stroke-width="0.0010cm" stroke-linecap="round" stroke-linejoin="round" shaper:cutDepth="0.01" /><path d="M-7.8105146,-7.3514382 a0.1887486,0.1887486 0 1,1 0.3774971,0 a0.1887486,0.1887486 0 1,1 -0.3774971,0z" transform="matrix(1,0,0,-1,11.1504381,10.6198898)" fill="rgb(255,255,255)" stroke="rgb(0,0,0)" stroke-width="0.0010cm" stroke-linecap="round" stroke-linejoin="round" shaper:cutDepth="0.01" /><path d="M1.7948741,9.8002176 a0.1887486,0.1887486 0 1,1 0.3774971,0 a0.1887486,0.1887486 0 1,1 -0.3774971,0z" transform="matrix(1,0,0,-1,11.1504381,10.6198898)" fill="rgb(255,255,255)" stroke="rgb(0,0,0)" stroke-width="0.0010cm" stroke-linecap="round" stroke-linejoin="round" shaper:cutDepth="0.01" /><path d="M-5.9252032,-8.8376979 a0.1887486,0.1887486 0 1,1 0.3774971,0 a0.1887486,0.1887486 0 1,1 -0.3774971,0z" transform="matrix(1,0,0,-1,11.1504381,10.6198898)" fill="rgb(255,255,255)" stroke="rgb(0,0,0)" stroke-width="0.0010cm" stroke-linecap="round" stroke-linejoin="round" shaper:cutDepth="0.01" /><path d="M9.5918316,-0.9313737 a0.1887486,0.1887486 0 1,1 0.3774971,0 a0.1887486,0.1887486 0 1,1 -0.3774971,0z" transform="matrix(1,0,0,-1,11.1504381,10.6198898)" fill="rgb(255,255,255)" stroke="rgb(0,0,0)" stroke-width="0.0010cm" stroke-linecap="round" stroke-linejoin="round" shaper:cutDepth="0.01" /><path d="M9.3411412,2.2539506 a0.1887486,0.1887486 0 1,1 0.3774971,0 a0.1887486,0.1887486 0 1,1 -0.3774971,0z" transform="matrix(1,0,0,-1,11.1504381,10.6198898)" fill="rgb(255,255,255)" stroke="rgb(0,0,0)" stroke-width="0.0010cm" stroke-linecap="round" stroke-linejoin="round" shaper:cutDepth="0.01" /><path d="M3.3189679,9.3050095 a0.1887486,0.1887486 0 1,1 0.3774971,0 a0.1887486,0.1887486 0 1,1 -0.3774971,0z" transform="matrix(1,0,0,-1,11.1504381,10.6198898)" fill="rgb(255,255,255)" stroke="rgb(0,0,0)" stroke-width="0.0010cm" stroke-linecap="round" stroke-linejoin="round" shaper:cutDepth="0.01" /><path d="M-10.5195144,2.2539506 a0.1887486,0.1887486 0 1,1 0.3774971,0 a0.1887486,0.1887486 0 1,1 -0.3774971,0z" transform="matrix(1,0,0,-1,11.1504381,10.6198898)" fill="rgb(255,255,255)" stroke="rgb(0,0,0)" stroke-width="0.0010cm" stroke-linecap="round" stroke-linejoin="round" shaper:cutDepth="0.01" /><path d="M-8.3548326,-6.7625984 a0.1887486,0.1887486 0 1,1 0.3774971,0 a0.1887486,0.1887486 0 1,1 -0.3774971,0z" transform="matrix(1,0,0,-1,11.1504381,10.6198898)" fill="rgb(255,255,255)" stroke="rgb(0,0,0)" stroke-width="0.0010cm" stroke-linecap="round" stroke-linejoin="round" shaper:cutDepth="0.01" /><path d="M-10.0243064,-4.0382648 a0.1887486,0.1887486 0 1,1 0.3774971,0 a0.1887486,0.1887486 0 1,1 -0.3774971,0z" transform="matrix(1,0,0,-1,11.1504381,10.6198898)" fill="rgb(255,255,255)" stroke="rgb(0,0,0)" stroke-width="0.0010cm" stroke-linecap="round" stroke-linejoin="round" shaper:cutDepth="0.01" /><path d="M-7.2216748,7.6355357 a0.1887486,0.1887486 0 1,1 0.3774971,0 a0.1887486,0.1887486 0 1,1 -0.3774971,0z" transform="matrix(1,0,0,-1,11.1504381,10.6198898)" fill="rgb(255,255,255)" stroke="rgb(0,0,0)" stroke-width="0.0010cm" stroke-linecap="round" stroke-linejoin="round" shaper:cutDepth="0.01" /></svg>