<?xml version="1.0" encoding="utf-8"?>
<!-- Generator: Adobe Illustrator 27.5.0, SVG Export Plug-In . SVG Version: 6.00 Build 0)  -->
<svg version="1.1" id="Layer_1" xmlns:shaper="http://www.shapertools.com/namespaces/shaper" shaper:fusionaddin="version:1.6.10"
	 xmlns="http://www.w3.org/2000/svg" xmlns:xlink="http://www.w3.org/1999/xlink" x="0px" y="0px" viewBox="0 0 609.4 609.4"
	 style="enable-background:new 0 0 609.4 609.4;" xml:space="preserve">
<style type="text/css">
	.st0{fill:none;stroke:#FF0000;stroke-miterlimit:10;}
	.st1{fill:none;stroke:#FF0000;stroke-width:0.8035;stroke-linecap:round;stroke-linejoin:round;stroke-miterlimit:113.3858;}
</style>
<path shaper:cutDepth="0.01" class="st0" d="M0,304.7C0,473,136.4,609.4,304.7,609.4S609.4,473,609.4,304.7l0,0
	C609.4,136.4,473,0,304.7,0S0,136.4,0,304.7L0,304.7z"/>
<path shaper:cutDepth="0.01" class="st1" d="M39.9,172.4c0,3,2.4,5.4,5.3,5.4c3,0,5.4-2.4,5.4-5.3c0,0,0,0,0,0c0-3-2.4-5.4-5.3-5.4
	C42.3,167,39.9,169.4,39.9,172.4C39.9,172.4,39.9,172.4,39.9,172.4z"/>
<path shaper:cutDepth="0.01" class="st1" d="M52.5,153.5c0,3,2.4,5.4,5.3,5.4c3,0,5.4-2.4,5.4-5.3c0,0,0,0,0,0c0-3-2.4-5.4-5.3-5.4
	C55,148.1,52.6,150.5,52.5,153.5C52.5,153.5,52.5,153.5,52.5,153.5z"/>
<path shaper:cutDepth="0.01" class="st1" d="M65.2,134.6c0,3,2.4,5.4,5.3,5.4c3,0,5.4-2.4,5.4-5.3c0,0,0,0,0,0c0-3-2.4-5.4-5.3-5.4
	C67.6,129.2,65.2,131.6,65.2,134.6C65.2,134.6,65.2,134.6,65.2,134.6z"/>
<path shaper:cutDepth="0.01" class="st1" d="M295.1,287.6c0,2.2,1.8,4,4,4c2.2,0,4-1.8,4-4c0,0,0,0,0,0c0-2.2-1.8-4-4-4
	C296.9,283.6,295.1,285.4,295.1,287.6C295.1,287.6,295.1,287.6,295.1,287.6z"/>
<path shaper:cutDepth="0.01" class="st1" d="M283.6,310.3c0,2.2,1.8,4,4,4s4-1.8,4-4s-1.8-4-4-4S283.6,308.1,283.6,310.3z"/>
<path shaper:cutDepth="0.01" class="st1" d="M317.8,299.2c0,2.2,1.8,4,4,4s4-1.8,4-4c0,0,0,0,0,0c0-2.2-1.8-4-4-4
	S317.8,296.9,317.8,299.2C317.8,299.2,317.8,299.2,317.8,299.2z"/>
<path shaper:cutDepth="0.01" class="st1" d="M306.3,321.8c0,2.2,1.8,4,4,4c2.2,0,4-1.8,4-4c0,0,0,0,0,0c0-2.2-1.8-4-4-4
	C308.1,317.8,306.3,319.6,306.3,321.8C306.3,321.8,306.3,321.8,306.3,321.8z"/>
<path shaper:cutDepth="0.01" class="st1" d="M295.7,304.7c0,5,4,9,9,9c5,0,9-4,9-9s-4-9-9-9C299.8,295.7,295.7,299.8,295.7,304.7z"
	/>
<path shaper:cutDepth="0.01" class="st1" d="M31.9,193.9c0,3,2.4,5.4,5.3,5.4c3,0,5.4-2.4,5.4-5.3c0,0,0,0,0,0c0-3-2.4-5.4-5.3-5.4
	C34.3,188.6,31.9,191,31.9,193.9C31.9,193.9,31.9,193.9,31.9,193.9z"/>
<path shaper:cutDepth="0.01" class="st1" d="M94.7,100c0,3,2.4,5.4,5.4,5.4c3,0,5.4-2.4,5.4-5.4c0-3-2.4-5.4-5.4-5.4
	C97.1,94.7,94.7,97.1,94.7,100z"/>
<path shaper:cutDepth="0.01" class="st1" d="M188.6,37.3c0,3,2.4,5.4,5.4,5.4c3,0,5.4-2.4,5.4-5.4c0-3-2.4-5.4-5.4-5.4
	C191,31.9,188.6,34.3,188.6,37.3z"/>
<path shaper:cutDepth="0.01" class="st1" d="M231.8,586.2c0,3,2.4,5.4,5.4,5.4s5.4-2.4,5.4-5.4s-2.4-5.4-5.4-5.4
	S231.8,583.3,231.8,586.2L231.8,586.2z"/>
<path shaper:cutDepth="0.01" class="st1" d="M65.1,438.1c5.5,9.8,17.8,13.3,27.6,7.9c0.7-0.4,1.4-0.8,2.1-1.3l147.4-107.1
	c18.2-13.2,22.2-38.6,9-56.8c-2.5-3.4-5.5-6.5-9-9L94.8,164.8c-9.1-6.6-21.8-4.6-28.4,4.5c-0.5,0.7-0.9,1.3-1.3,2.1
	C18.9,254.3,18.9,355.2,65.1,438.1z"/>
<path shaper:cutDepth="0.01" class="st1" d="M420.2,553.5c-10.2,4.7-22.3,0.3-27-9.9c-0.3-0.7-0.6-1.5-0.9-2.3L336,368.1
	c-6.9-21.3,4.7-44.3,26.1-51.2c4.1-1.3,8.3-2,12.6-2h182.2c11.2,0,20.3,9.1,20.3,20.3c0,0.8,0,1.6-0.1,2.4
	C565.6,431.9,506.3,513.5,420.2,553.5z"/>
<path shaper:cutDepth="0.01" class="st1" d="M188.6,572.2c0,3,2.4,5.4,5.4,5.4c3,0,5.4-2.4,5.4-5.4c0-3-2.4-5.4-5.4-5.4
	C191,566.8,188.6,569.2,188.6,572.2z"/>
<path shaper:cutDepth="0.01" class="st1" d="M577,271.8c1.3,11.1-6.6,21.3-17.7,22.6c-0.8,0.1-1.6,0.1-2.4,0.1H374.6
	c-22.4,0-40.6-18.2-40.6-40.6c0-4.3,0.7-8.5,2-12.6l56.3-173.3c3.5-10.7,14.9-16.5,25.6-13c0.8,0.3,1.5,0.5,2.3,0.9
	C506.3,95.9,565.6,177.6,577,271.8z"/>
<path shaper:cutDepth="0.01" class="st1" d="M24.1,215.3c0,3,2.4,5.4,5.3,5.4c3,0,5.4-2.4,5.4-5.3c0,0,0,0,0,0c0-3-2.4-5.4-5.3-5.4
	C26.5,209.9,24.1,212.3,24.1,215.3C24.1,215.3,24.1,215.3,24.1,215.3z"/>
<path shaper:cutDepth="0.01" class="st1" d="M41.4,436.1c0,3,2.4,5.4,5.3,5.4c3,0,5.4-2.4,5.4-5.3c0,0,0,0,0,0c0-3-2.4-5.4-5.3-5.4
	C43.8,430.8,41.4,433.2,41.4,436.1C41.4,436.1,41.4,436.1,41.4,436.1z"/>
<path shaper:cutDepth="0.01" class="st1" d="M276.7,593.3c0,3,2.4,5.4,5.3,5.4c3,0,5.4-2.4,5.4-5.3c0,0,0,0,0,0c0-3-2.4-5.4-5.3-5.4
	C279.1,588,276.7,590.4,276.7,593.3C276.7,593.3,276.7,593.3,276.7,593.3z"/>
<path shaper:cutDepth="0.01" class="st1" d="M367,586.2c0,3,2.4,5.4,5.3,5.4s5.4-2.4,5.4-5.3c0,0,0,0,0,0c0-3-2.4-5.4-5.3-5.4
	S367,583.3,367,586.2C367,586.2,367,586.2,367,586.2z"/>
<path shaper:cutDepth="0.01" class="st1" d="M357.6,35.6c11,2.2,18.2,12.8,16,23.8c-0.2,0.8-0.4,1.6-0.6,2.4l-56.3,173.3
	c-6.9,21.3-29.9,33-51.2,26.1c-4.1-1.3-7.9-3.3-11.3-5.8L106.7,148.3c-9.1-6.6-11.1-19.3-4.5-28.4c0.5-0.7,1-1.3,1.6-1.9
	C168.4,48.5,264.4,17.3,357.6,35.6z"/>
<path shaper:cutDepth="0.01" class="st1" d="M13.4,350c0,3,2.4,5.4,5.3,5.4c3,0,5.4-2.4,5.4-5.3c0,0,0,0,0,0c0-3-2.4-5.4-5.3-5.4
	C15.9,344.6,13.5,347,13.4,350C13.4,350,13.4,350,13.4,350z"/>
<path shaper:cutDepth="0.01" class="st1" d="M254.1,18.8c0,3,2.4,5.4,5.3,5.4c3,0,5.4-2.4,5.4-5.3c0,0,0,0,0,0c0-3-2.4-5.4-5.3-5.4
	C256.5,13.4,254.1,15.8,254.1,18.8C254.1,18.8,254.1,18.8,254.1,18.8z"/>
<path shaper:cutDepth="0.01" class="st1" d="M24.1,394.2c0,3,2.4,5.4,5.3,5.4c3,0,5.4-2.4,5.4-5.3c0,0,0,0,0,0c0-3-2.4-5.4-5.3-5.4
	C26.5,388.8,24.1,391.2,24.1,394.2C24.1,394.2,24.1,394.2,24.1,394.2z"/>
<path shaper:cutDepth="0.01" class="st1" d="M357.6,573.8c11-2.2,18.2-12.8,16-23.8c-0.2-0.8-0.4-1.6-0.6-2.4l-56.3-173.3
	c-6.9-21.3-29.9-33-51.2-26.1c-4.1,1.3-7.9,3.3-11.3,5.8L106.7,461.1c-9.1,6.6-11.1,19.3-4.5,28.4c0.5,0.7,1,1.3,1.6,1.9
	C168.4,560.9,264.4,592.1,357.6,573.8z"/>
<path shaper:cutDepth="0.01" class="st1" d="M322.1,16.1c0,3,2.4,5.4,5.3,5.4c3,0,5.4-2.4,5.4-5.3c0,0,0,0,0,0c0-3-2.4-5.4-5.3-5.4
	C324.5,10.8,322.1,13.2,322.1,16.1C322.1,16.1,322.1,16.1,322.1,16.1z"/>
<path shaper:cutDepth="0.01" class="st1" d="M148.1,57.9c0,3,2.4,5.4,5.4,5.4s5.4-2.4,5.4-5.4c0-3-2.4-5.4-5.4-5.4
	S148.1,54.9,148.1,57.9z"/>
<path shaper:cutDepth="0.01" class="st1" d="M299.4,15.2c0,3,2.4,5.4,5.3,5.4c3,0,5.4-2.4,5.4-5.3c0,0,0,0,0,0c0-3-2.4-5.4-5.3-5.4
	C301.8,9.9,299.4,12.3,299.4,15.2C299.4,15.2,299.4,15.2,299.4,15.2z"/>
<path shaper:cutDepth="0.01" class="st1" d="M111.4,524.9c0,3,2.4,5.4,5.4,5.4c3,0,5.4-2.4,5.4-5.4c0-3-2.4-5.4-5.4-5.4
	C113.8,519.5,111.4,521.9,111.4,524.9z"/>
<path shaper:cutDepth="0.01" class="st1" d="M129.2,70.5c0,3,2.4,5.4,5.4,5.4c3,0,5.4-2.4,5.4-5.4s-2.4-5.4-5.4-5.4
	C131.6,65.2,129.2,67.6,129.2,70.5z"/>
<path shaper:cutDepth="0.01" class="st1" d="M65.2,474.9c0,3,2.4,5.4,5.3,5.4c3,0,5.4-2.4,5.4-5.3c0,0,0,0,0,0c0-3-2.4-5.4-5.3-5.4
	C67.6,469.5,65.2,471.9,65.2,474.9C65.2,474.9,65.2,474.9,65.2,474.9z"/>
<path shaper:cutDepth="0.01" class="st1" d="M276.7,16.1c0,3,2.4,5.4,5.3,5.4c3,0,5.4-2.4,5.4-5.3c0,0,0,0,0,0c0-3-2.4-5.4-5.3-5.4
	C279.1,10.8,276.7,13.2,276.7,16.1C276.7,16.1,276.7,16.1,276.7,16.1z"/>
<path shaper:cutDepth="0.01" class="st1" d="M167.9,46.8c0,3,2.4,5.4,5.4,5.4c3,0,5.4-2.4,5.4-5.4c0-3-2.4-5.4-5.4-5.4
	C170.3,41.4,167.9,43.8,167.9,46.8z"/>
<path shaper:cutDepth="0.01" class="st1" d="M79.2,116.7c0,3,2.4,5.4,5.4,5.4c3,0,5.4-2.4,5.4-5.4c0-3-2.4-5.4-5.4-5.4
	C81.6,111.4,79.2,113.8,79.2,116.7z"/>
<path shaper:cutDepth="0.01" class="st1" d="M322.1,593.3c0,3,2.4,5.4,5.3,5.4c3,0,5.4-2.4,5.4-5.3c0,0,0,0,0,0c0-3-2.4-5.4-5.3-5.4
	C324.5,588,322.1,590.4,322.1,593.3C322.1,593.3,322.1,593.3,322.1,593.3z"/>
<path shaper:cutDepth="0.01" class="st1" d="M9.9,304.7c0,3,2.4,5.4,5.3,5.4c3,0,5.4-2.4,5.4-5.3c0,0,0,0,0,0c0-3-2.4-5.4-5.3-5.4
	C12.3,299.4,9.9,301.8,9.9,304.7C9.9,304.7,9.9,304.7,9.9,304.7z"/>
<path shaper:cutDepth="0.01" class="st1" d="M209.9,580c0,3,2.4,5.4,5.4,5.4c3,0,5.4-2.4,5.4-5.4c0-3-2.4-5.4-5.4-5.4
	C212.3,574.7,209.9,577.1,209.9,580z"/>
<path shaper:cutDepth="0.01" class="st1" d="M254.1,590.6c0,3,2.4,5.4,5.3,5.4c3,0,5.4-2.4,5.4-5.3c0,0,0,0,0,0c0-3-2.4-5.4-5.3-5.4
	C256.5,585.3,254.1,587.7,254.1,590.6C254.1,590.6,254.1,590.6,254.1,590.6z"/>
<path shaper:cutDepth="0.01" class="st1" d="M129.2,538.9c0,3,2.4,5.4,5.4,5.4c3,0,5.4-2.4,5.4-5.4c0-3-2.4-5.4-5.4-5.4
	C131.6,533.6,129.2,536,129.2,538.9z"/>
<path shaper:cutDepth="0.01" class="st1" d="M231.8,23.2c0,3,2.4,5.4,5.4,5.4s5.4-2.4,5.4-5.4l0,0c0-3-2.4-5.4-5.4-5.4
	S231.8,20.3,231.8,23.2z"/>
<path shaper:cutDepth="0.01" class="st1" d="M299.4,594.2c0,3,2.4,5.4,5.3,5.4s5.4-2.4,5.4-5.3c0,0,0,0,0,0c0-3-2.4-5.4-5.3-5.4
	C301.8,588.9,299.4,591.3,299.4,594.2C299.4,594.2,299.4,594.2,299.4,594.2z"/>
<path shaper:cutDepth="0.01" class="st1" d="M344.7,590.6c0,3,2.4,5.4,5.3,5.4c3,0,5.4-2.4,5.4-5.3c0,0,0,0,0,0c0-3-2.4-5.4-5.3-5.4
	C347.1,585.3,344.7,587.7,344.7,590.6C344.7,590.6,344.7,590.6,344.7,590.6z"/>
<path shaper:cutDepth="0.01" class="st1" d="M487.4,84.6c0,3,2.4,5.4,5.4,5.4c3,0,5.4-2.4,5.4-5.4l0,0c0-3-2.4-5.4-5.4-5.4
	C489.8,79.2,487.4,81.6,487.4,84.6z"/>
<path shaper:cutDepth="0.01" class="st1" d="M533.6,474.9c0,3,2.4,5.4,5.3,5.4s5.4-2.4,5.4-5.3c0,0,0,0,0,0c0-3-2.4-5.4-5.4-5.4
	C536,469.5,533.6,471.9,533.6,474.9L533.6,474.9z"/>
<path shaper:cutDepth="0.01" class="st1" d="M450.6,57.9c0,3,2.4,5.4,5.4,5.4c3,0,5.4-2.4,5.4-5.4c0-3-2.4-5.4-5.4-5.4
	C453,52.5,450.6,54.9,450.6,57.9z"/>
<path shaper:cutDepth="0.01" class="st1" d="M588.9,304.7c0,3,2.4,5.4,5.3,5.4c3,0,5.4-2.4,5.4-5.3c0,0,0,0,0,0c0-3-2.4-5.4-5.3-5.4
	C591.3,299.4,588.9,301.8,588.9,304.7C588.9,304.7,588.9,304.7,588.9,304.7z"/>
<path shaper:cutDepth="0.01" class="st1" d="M557.3,436.1c0,3,2.4,5.4,5.3,5.4c3,0,5.4-2.4,5.4-5.3c0,0,0,0,0,0c0-3-2.4-5.4-5.3-5.4
	C559.7,430.8,557.3,433.2,557.3,436.1C557.3,436.1,557.3,436.1,557.3,436.1z"/>
<path shaper:cutDepth="0.01" class="st1" d="M388.8,29.4c0,3,2.4,5.4,5.4,5.4s5.4-2.4,5.4-5.4l0,0c0-3-2.4-5.4-5.4-5.4
	S388.8,26.4,388.8,29.4z"/>
<path shaper:cutDepth="0.01" class="st1" d="M430.8,46.8c0,3,2.4,5.4,5.4,5.4s5.4-2.4,5.4-5.4c0-3-2.4-5.4-5.4-5.4
	S430.8,43.8,430.8,46.8z"/>
<path shaper:cutDepth="0.01" class="st1" d="M469.5,70.5c0,3,2.4,5.4,5.4,5.4c3,0,5.4-2.4,5.4-5.4s-2.4-5.4-5.4-5.4
	C471.9,65.2,469.5,67.6,469.5,70.5z"/>
<path shaper:cutDepth="0.01" class="st1" d="M430.8,562.7c0,3,2.4,5.4,5.4,5.4s5.4-2.4,5.4-5.4l0,0c0-3-2.4-5.4-5.4-5.4
	S430.8,559.7,430.8,562.7z"/>
<path shaper:cutDepth="0.01" class="st1" d="M469.5,538.9c0,3,2.4,5.4,5.4,5.4c3,0,5.4-2.4,5.4-5.4c0-3-2.4-5.4-5.4-5.4
	C471.9,533.6,469.5,536,469.5,538.9z"/>
<path shaper:cutDepth="0.01" class="st1" d="M410.2,572.2c0,3,2.4,5.4,5.4,5.4s5.4-2.4,5.4-5.4c0-3-2.4-5.4-5.4-5.4
	S410.2,569.2,410.2,572.2z"/>
<path shaper:cutDepth="0.01" class="st1" d="M546.2,153.5c0,3,2.4,5.4,5.3,5.4c3,0,5.4-2.4,5.4-5.3c0,0,0,0,0,0c0-3-2.4-5.4-5.3-5.4
	C548.6,148.1,546.2,150.5,546.2,153.5C546.2,153.5,546.2,153.5,546.2,153.5z"/>
<path shaper:cutDepth="0.01" class="st1" d="M574.7,215.3c0,3,2.4,5.4,5.3,5.4c3,0,5.4-2.4,5.4-5.3c0,0,0,0,0,0c0-3-2.4-5.4-5.3-5.4
	C577.1,209.9,574.7,212.3,574.7,215.3C574.7,215.3,574.7,215.3,574.7,215.3z"/>
<path shaper:cutDepth="0.01" class="st1" d="M588,282c0,3,2.4,5.4,5.3,5.4c3,0,5.4-2.4,5.4-5.3c0,0,0,0,0,0c0-3-2.4-5.4-5.3-5.4
	C590.4,276.6,588,279,588,282C588,282,588,282,588,282z"/>
<path shaper:cutDepth="0.01" class="st1" d="M557.3,173.3c0,3,2.4,5.4,5.3,5.4c3,0,5.4-2.4,5.4-5.3c0,0,0,0,0,0c0-3-2.4-5.4-5.3-5.4
	C559.7,167.9,557.3,170.3,557.3,173.3C557.3,173.3,557.3,173.3,557.3,173.3z"/>
<path shaper:cutDepth="0.01" class="st1" d="M388.8,580c0,3,2.4,5.4,5.4,5.4s5.4-2.4,5.4-5.4c0-3-2.4-5.4-5.4-5.4
	S388.8,577.1,388.8,580z"/>
<path shaper:cutDepth="0.01" class="st1" d="M580.9,372.3c0,3,2.4,5.4,5.3,5.4c3,0,5.4-2.4,5.4-5.3c0,0,0,0,0,0c0-3-2.4-5.4-5.3-5.4
	C583.3,366.9,580.9,369.3,580.9,372.3C580.9,372.3,580.9,372.3,580.9,372.3z"/>
<path shaper:cutDepth="0.01" class="st1" d="M519.5,116.7c0,3,2.4,5.4,5.4,5.4c3,0,5.4-2.4,5.4-5.4c0-3-2.4-5.4-5.4-5.4
	C521.9,111.4,519.5,113.8,519.5,116.7z"/>
<path shaper:cutDepth="0.01" class="st1" d="M17.9,372.3c0,3,2.4,5.4,5.3,5.4c3,0,5.4-2.4,5.4-5.3c0,0,0,0,0,0c0-3-2.4-5.4-5.3-5.4
	C20.3,366.9,17.9,369.3,17.9,372.3C17.9,372.3,17.9,372.3,17.9,372.3z"/>
<path shaper:cutDepth="0.01" class="st1" d="M52.5,456c0,3,2.4,5.4,5.3,5.4c3,0,5.4-2.4,5.4-5.3c0,0,0,0,0,0c0-3-2.4-5.4-5.3-5.4
	C54.9,450.6,52.5,453,52.5,456C52.5,456,52.5,456,52.5,456z"/>
<path shaper:cutDepth="0.01" class="st1" d="M10.8,327.4c0,3,2.4,5.4,5.3,5.4c3,0,5.4-2.4,5.4-5.3c0,0,0,0,0,0c0-3-2.4-5.4-5.3-5.4
	C13.2,322.1,10.8,324.5,10.8,327.4C10.8,327.4,10.8,327.4,10.8,327.4z"/>
<path shaper:cutDepth="0.01" class="st1" d="M566.8,193.9c0,3,2.4,5.4,5.3,5.4c3,0,5.4-2.4,5.4-5.3c0,0,0,0,0,0c0-3-2.4-5.4-5.3-5.4
	C569.2,188.6,566.8,191,566.8,193.9C566.8,193.9,566.8,193.9,566.8,193.9z"/>
<path shaper:cutDepth="0.01" class="st1" d="M504.1,100c0,3,2.4,5.4,5.4,5.4c3,0,5.4-2.4,5.4-5.4c0-3-2.4-5.4-5.4-5.4
	C506.5,94.7,504.1,97.1,504.1,100z"/>
<path shaper:cutDepth="0.01" class="st1" d="M585.3,350c0,3,2.4,5.4,5.3,5.4c3,0,5.4-2.4,5.4-5.3c0,0,0,0,0,0c0-3-2.4-5.4-5.3-5.4
	C587.7,344.6,585.3,347,585.3,350C585.3,350,585.3,350,585.3,350z"/>
<path shaper:cutDepth="0.01" class="st1" d="M574.7,394.2c0,3,2.4,5.4,5.3,5.4c3,0,5.4-2.4,5.4-5.3c0,0,0,0,0,0c0-3-2.4-5.4-5.3-5.4
	C577.1,388.8,574.7,391.2,574.7,394.2C574.7,394.2,574.7,394.2,574.7,394.2z"/>
<path shaper:cutDepth="0.01" class="st1" d="M167.9,562.7c0,3,2.4,5.4,5.4,5.4c3,0,5.4-2.4,5.4-5.4l0,0c0-3-2.4-5.4-5.4-5.4
	C170.3,557.3,167.9,559.7,167.9,562.7z"/>
<path shaper:cutDepth="0.01" class="st1" d="M519.5,492.7c0,3,2.4,5.4,5.4,5.4c3,0,5.4-2.4,5.4-5.4l0,0c0-3-2.4-5.4-5.4-5.4
	C521.9,487.4,519.5,489.8,519.5,492.7z"/>
<path shaper:cutDepth="0.01" class="st1" d="M546.2,456c0,3,2.4,5.4,5.3,5.4c3,0,5.4-2.4,5.4-5.3c0,0,0,0,0,0c0-3-2.4-5.4-5.3-5.4
	C548.6,450.6,546.2,453,546.2,456C546.2,456,546.2,456,546.2,456z"/>
<path shaper:cutDepth="0.01" class="st1" d="M487.4,524.9c0,3,2.4,5.4,5.4,5.4c3,0,5.4-2.4,5.4-5.4c0-3-2.4-5.4-5.4-5.4
	C489.8,519.5,487.4,521.9,487.4,524.9z"/>
<path shaper:cutDepth="0.01" class="st1" d="M504.1,509.4c0,3,2.4,5.4,5.4,5.4c3,0,5.4-2.4,5.4-5.4c0-3-2.4-5.4-5.4-5.4
	C506.5,504.1,504.1,506.5,504.1,509.4z"/>
<path shaper:cutDepth="0.01" class="st1" d="M13.4,259.4c0,3,2.4,5.4,5.3,5.4c3,0,5.4-2.4,5.4-5.3c0,0,0,0,0,0c0-3-2.4-5.4-5.3-5.4
	C15.9,254.1,13.5,256.5,13.4,259.4C13.4,259.4,13.4,259.4,13.4,259.4z"/>
<path shaper:cutDepth="0.01" class="st1" d="M585.3,259.4c0,3,2.4,5.4,5.3,5.4c3,0,5.4-2.4,5.4-5.3c0,0,0,0,0,0c0-3-2.4-5.4-5.3-5.4
	C587.7,254.1,585.3,256.5,585.3,259.4C585.3,259.4,585.3,259.4,585.3,259.4z"/>
<path shaper:cutDepth="0.01" class="st1" d="M533.6,134.6c0,3,2.4,5.4,5.3,5.4s5.4-2.4,5.4-5.3c0,0,0,0,0,0c0-3-2.4-5.4-5.4-5.4
	C536,129.2,533.6,131.6,533.6,134.6L533.6,134.6z"/>
<path shaper:cutDepth="0.01" class="st1" d="M566.8,415.5c0,3,2.4,5.4,5.3,5.4c3,0,5.4-2.4,5.4-5.3c0,0,0,0,0,0c0-3-2.4-5.4-5.3-5.4
	C569.2,410.1,566.8,412.5,566.8,415.5C566.8,415.5,566.8,415.5,566.8,415.5z"/>
<path shaper:cutDepth="0.01" class="st1" d="M450.6,551.6c0,3,2.4,5.4,5.4,5.4c3,0,5.4-2.4,5.4-5.4c0-3-2.4-5.4-5.4-5.4
	C453,546.2,450.6,548.6,450.6,551.6z"/>
<path shaper:cutDepth="0.01" class="st1" d="M344.7,18.8c0,3,2.4,5.4,5.3,5.4c3,0,5.4-2.4,5.4-5.3c0,0,0,0,0,0c0-3-2.4-5.4-5.3-5.4
	C347.1,13.4,344.7,15.8,344.7,18.8C344.7,18.8,344.7,18.8,344.7,18.8z"/>
<path shaper:cutDepth="0.01" class="st1" d="M10.8,282c0,3,2.4,5.4,5.3,5.4c3,0,5.4-2.4,5.4-5.3c0,0,0,0,0,0c0-3-2.4-5.4-5.3-5.4
	C13.2,276.6,10.8,279,10.8,282C10.8,282,10.8,282,10.8,282z"/>
<path shaper:cutDepth="0.01" class="st1" d="M209.9,29.4c0,3,2.4,5.4,5.4,5.4c3,0,5.4-2.4,5.4-5.4l0,0c0-3-2.4-5.4-5.4-5.4
	C212.3,24.1,209.9,26.4,209.9,29.4z"/>
<path shaper:cutDepth="0.01" class="st1" d="M94.7,509.4c0,3,2.4,5.4,5.4,5.4c3,0,5.4-2.4,5.4-5.4c0-3-2.4-5.4-5.4-5.4
	C97.1,504.1,94.7,506.5,94.7,509.4z"/>
<path shaper:cutDepth="0.01" class="st1" d="M367,23.2c0,3,2.4,5.4,5.3,5.4c3,0,5.4-2.4,5.4-5.3c0,0,0,0,0,0c0-3-2.4-5.4-5.3-5.4
	C369.4,17.9,367,20.3,367,23.2C367,23.2,367,23.2,367,23.2z"/>
<path shaper:cutDepth="0.01" class="st1" d="M148.1,551.6c0,3,2.4,5.4,5.4,5.4s5.4-2.4,5.4-5.4c0-3-2.4-5.4-5.4-5.4
	S148.1,548.6,148.1,551.6z"/>
<path shaper:cutDepth="0.01" class="st1" d="M588,327.4c0,3,2.4,5.4,5.3,5.4c3,0,5.4-2.4,5.4-5.3c0,0,0,0,0,0c0-3-2.4-5.4-5.3-5.4
	C590.4,322.1,588,324.5,588,327.4C588,327.4,588,327.4,588,327.4z"/>
<path shaper:cutDepth="0.01" class="st1" d="M580.9,237.1c0,3,2.4,5.4,5.3,5.4c3,0,5.4-2.4,5.4-5.3c0,0,0,0,0,0c0-3-2.4-5.4-5.3-5.4
	C583.3,231.8,580.9,234.2,580.9,237.1C580.9,237.1,580.9,237.1,580.9,237.1z"/>
<path shaper:cutDepth="0.01" class="st1" d="M410.2,37.3c0,3,2.4,5.4,5.4,5.4s5.4-2.4,5.4-5.4c0-3-2.4-5.4-5.4-5.4
	S410.2,34.3,410.2,37.3z"/>
<path shaper:cutDepth="0.01" class="st1" d="M17.9,237.1c0,3,2.4,5.4,5.3,5.4c3,0,5.4-2.4,5.4-5.3c0,0,0,0,0,0c0-3-2.4-5.4-5.3-5.4
	C20.3,231.8,17.9,234.2,17.9,237.1C17.9,237.1,17.9,237.1,17.9,237.1z"/>
<path shaper:cutDepth="0.01" class="st1" d="M79.2,492.7c0,3,2.4,5.4,5.4,5.4c3,0,5.4-2.4,5.4-5.4l0,0c0-3-2.4-5.4-5.4-5.4
	C81.6,487.4,79.2,489.8,79.2,492.7z"/>
<path shaper:cutDepth="0.01" class="st1" d="M31.9,415.5c0,3,2.4,5.4,5.3,5.4c3,0,5.4-2.4,5.4-5.3c0,0,0,0,0,0c0-3-2.4-5.4-5.3-5.4
	C34.3,410.1,31.9,412.5,31.9,415.5C31.9,415.5,31.9,415.5,31.9,415.5z"/>
<path shaper:cutDepth="0.01" class="st1" d="M111.4,84.6c0,3,2.4,5.4,5.4,5.4c3,0,5.4-2.4,5.4-5.4l0,0c0-3-2.4-5.4-5.4-5.4
	C113.8,79.2,111.4,81.6,111.4,84.6z"/>
<g>
	
		<image style="overflow:visible;" width="289" height="52" xlink:href="75BE8A8E.png"  transform="matrix(0.7692 0 0 0.769 849.2504 520.3984)">
	</image>
</g>
</svg>
