%TF.GenerationSoftware,KiCad,Pcbnew,7.0.6-0*%
%TF.CreationDate,2023-09-22T13:52:59-04:00*%
%TF.ProjectId,SurfaceMounted,53757266-6163-4654-9d6f-756e7465642e,rev?*%
%TF.SameCoordinates,Original*%
%TF.FileFunction,Paste,Top*%
%TF.FilePolarity,Positive*%
%FSLAX46Y46*%
G04 Gerber Fmt 4.6, Leading zero omitted, Abs format (unit mm)*
G04 Created by KiCad (PCBNEW 7.0.6-0) date 2023-09-22 13:52:59*
%MOMM*%
%LPD*%
G01*
G04 APERTURE LIST*
G04 Aperture macros list*
%AMRoundRect*
0 Rectangle with rounded corners*
0 $1 Rounding radius*
0 $2 $3 $4 $5 $6 $7 $8 $9 X,Y pos of 4 corners*
0 Add a 4 corners polygon primitive as box body*
4,1,4,$2,$3,$4,$5,$6,$7,$8,$9,$2,$3,0*
0 Add four circle primitives for the rounded corners*
1,1,$1+$1,$2,$3*
1,1,$1+$1,$4,$5*
1,1,$1+$1,$6,$7*
1,1,$1+$1,$8,$9*
0 Add four rect primitives between the rounded corners*
20,1,$1+$1,$2,$3,$4,$5,0*
20,1,$1+$1,$4,$5,$6,$7,0*
20,1,$1+$1,$6,$7,$8,$9,0*
20,1,$1+$1,$8,$9,$2,$3,0*%
G04 Aperture macros list end*
%ADD10RoundRect,0.243750X0.456250X-0.243750X0.456250X0.243750X-0.456250X0.243750X-0.456250X-0.243750X0*%
%ADD11RoundRect,0.250000X-0.312500X-0.625000X0.312500X-0.625000X0.312500X0.625000X-0.312500X0.625000X0*%
%ADD12RoundRect,0.250000X-0.625000X0.312500X-0.625000X-0.312500X0.625000X-0.312500X0.625000X0.312500X0*%
%ADD13RoundRect,0.243750X-0.456250X0.243750X-0.456250X-0.243750X0.456250X-0.243750X0.456250X0.243750X0*%
%ADD14RoundRect,0.250000X0.625000X-0.312500X0.625000X0.312500X-0.625000X0.312500X-0.625000X-0.312500X0*%
G04 APERTURE END LIST*
D10*
%TO.C,V_LED4*%
X232613200Y-116281200D03*
X232613200Y-114406200D03*
%TD*%
%TO.C,V_LED6*%
X217393200Y-116348700D03*
X217393200Y-114473700D03*
%TD*%
D11*
%TO.C,R1*%
X237206600Y-89458800D03*
X240131600Y-89458800D03*
%TD*%
D12*
%TO.C,V_LED_R3*%
X232660000Y-125580000D03*
X232660000Y-128505000D03*
%TD*%
D13*
%TO.C,V_LED1*%
X217424000Y-118922800D03*
X217424000Y-120797800D03*
%TD*%
D11*
%TO.C,R6*%
X237200000Y-62030000D03*
X240125000Y-62030000D03*
%TD*%
D13*
%TO.C,V_LED2*%
X225040000Y-118922500D03*
X225040000Y-120797500D03*
%TD*%
D11*
%TO.C,R2*%
X237210600Y-80314800D03*
X240135600Y-80314800D03*
%TD*%
D12*
%TO.C,V_LED_R2*%
X225080000Y-125690000D03*
X225080000Y-128615000D03*
%TD*%
D14*
%TO.C,V_LED_R4*%
X232562400Y-110062200D03*
X232562400Y-107137200D03*
%TD*%
D13*
%TO.C,V_LED3*%
X232664000Y-118930000D03*
X232664000Y-120805000D03*
%TD*%
D11*
%TO.C,R4*%
X237210600Y-71170800D03*
X240135600Y-71170800D03*
%TD*%
%TO.C,R3*%
X237206600Y-85140800D03*
X240131600Y-85140800D03*
%TD*%
%TO.C,R5*%
X237159800Y-75996800D03*
X240084800Y-75996800D03*
%TD*%
%TO.C,R7*%
X237147500Y-66850000D03*
X240072500Y-66850000D03*
%TD*%
D12*
%TO.C,V_LED_R1*%
X217520000Y-125630000D03*
X217520000Y-128555000D03*
%TD*%
D14*
%TO.C,V_LED_R5*%
X224993200Y-110062200D03*
X224993200Y-107137200D03*
%TD*%
%TO.C,V_LED_R6*%
X217373200Y-110072900D03*
X217373200Y-107147900D03*
%TD*%
D10*
%TO.C,V_LED5*%
X224983200Y-116301200D03*
X224983200Y-114426200D03*
%TD*%
D11*
%TO.C,R8*%
X237210000Y-57710000D03*
X240135000Y-57710000D03*
%TD*%
M02*
