M48
; DRILL file {KiCad 7.0.6-0} date 2023 September 22, Friday 13:53:00
; FORMAT={-:-/ absolute / inch / decimal}
; #@! TF.CreationDate,2023-09-22T13:53:00-04:00
; #@! TF.GenerationSoftware,Kicad,Pcbnew,7.0.6-0
; #@! TF.FileFunction,Plated,1,2,PTH
FMAT,2
INCH
; #@! TA.AperFunction,Plated,PTH,ViaDrill
T1C0.0157
; #@! TA.AperFunction,Plated,PTH,ComponentDrill
T2C0.0315
; #@! TA.AperFunction,Plated,PTH,ComponentDrill
T3C0.0400
; #@! TA.AperFunction,Plated,PTH,ComponentDrill
T4C0.0433
; #@! TA.AperFunction,Plated,PTH,ComponentDrill
T5C0.0512
%
G90
G05
T1
X8.9843Y-4.1781
X9.1437Y-3.586
T2
X9.6835Y-5.203
X9.7623Y-5.203
X9.841Y-5.203
X9.9197Y-5.203
T3
X8.31Y-2.7301
X8.31Y-2.8301
X8.31Y-2.9301
X8.31Y-3.0301
X8.31Y-3.1301
X8.31Y-3.2301
X8.31Y-3.3301
X8.31Y-3.4301
X8.31Y-3.6301
X8.31Y-3.7301
X8.31Y-3.8301
X8.31Y-3.9301
X8.31Y-4.0301
X8.31Y-4.1301
X8.31Y-4.2301
X8.31Y-4.3301
X8.31Y-4.5301
X8.31Y-4.6301
X8.31Y-4.7301
X8.31Y-4.8301
X8.31Y-4.9301
X8.31Y-5.0301
X8.31Y-5.1301
X8.31Y-5.2301
X8.51Y-5.3301
X8.51Y-5.4301
X8.61Y-5.3301
X8.61Y-5.4301
X8.71Y-5.3301
X8.71Y-5.4301
X8.81Y-5.3301
X8.81Y-5.4301
X8.91Y-5.3301
X8.91Y-5.4301
X9.01Y-5.3301
X9.01Y-5.4301
X9.11Y-5.3301
X9.11Y-5.4301
X9.21Y-5.3301
X9.21Y-5.4301
X9.31Y-5.3301
X9.31Y-5.4301
X9.41Y-5.3301
X9.41Y-5.4301
X9.51Y-5.3301
X9.51Y-5.4301
X9.61Y-5.3301
X9.61Y-5.4301
X9.71Y-5.3301
X9.71Y-5.4301
X9.81Y-5.3301
X9.81Y-5.4301
X9.91Y-5.3301
X9.91Y-5.4301
X10.01Y-5.3301
X10.01Y-5.4301
X10.11Y-5.3301
X10.11Y-5.4301
X10.21Y-2.3701
X10.21Y-2.4701
X10.21Y-2.5701
X10.21Y-2.6701
X10.21Y-2.7701
X10.21Y-2.8701
X10.21Y-2.9701
X10.21Y-3.0701
X10.21Y-3.1701
X10.21Y-3.2701
X10.21Y-3.4301
X10.21Y-3.5301
X10.21Y-3.6301
X10.21Y-3.7301
X10.21Y-3.8301
X10.21Y-3.9301
X10.21Y-4.0301
X10.21Y-4.1301
X10.21Y-4.3301
X10.21Y-4.4301
X10.21Y-4.5301
X10.21Y-4.6301
X10.21Y-4.7301
X10.21Y-4.8301
X10.21Y-4.9301
X10.21Y-5.0301
X10.21Y-5.3301
X10.21Y-5.4301
T4
X8.964Y-2.362
X8.964Y-2.722
X8.964Y-3.088
X8.964Y-3.442
X9.054Y-2.362
X9.054Y-2.722
X9.054Y-3.088
X9.054Y-3.442
X9.144Y-2.362
X9.144Y-2.722
X9.144Y-3.088
X9.144Y-3.442
T5
X8.61Y-2.33
X8.61Y-2.5269
X8.61Y-2.7237
X8.61Y-2.9206
X8.61Y-3.23
X8.61Y-3.4269
X8.61Y-3.6237
X8.61Y-3.8206
X9.4163Y-4.63
X9.6131Y-4.63
X9.81Y-4.63
X9.91Y-2.1426
X9.91Y-2.3394
X9.91Y-2.5363
X9.91Y-2.7331
X9.91Y-2.93
X9.91Y-3.2331
X9.91Y-3.43
X9.91Y-3.6269
X9.91Y-3.8237
X9.91Y-4.0206
X9.91Y-4.2174
X10.0069Y-4.63
T0
M30
