%TF.GenerationSoftware,KiCad,Pcbnew,7.0.6-0*%
%TF.CreationDate,2023-09-22T13:52:59-04:00*%
%TF.ProjectId,SurfaceMounted,53757266-6163-4654-9d6f-756e7465642e,rev?*%
%TF.SameCoordinates,Original*%
%TF.FileFunction,Soldermask,Top*%
%TF.FilePolarity,Negative*%
%FSLAX46Y46*%
G04 Gerber Fmt 4.6, Leading zero omitted, Abs format (unit mm)*
G04 Created by KiCad (PCBNEW 7.0.6-0) date 2023-09-22 13:52:59*
%MOMM*%
%LPD*%
G01*
G04 APERTURE LIST*
G04 Aperture macros list*
%AMRoundRect*
0 Rectangle with rounded corners*
0 $1 Rounding radius*
0 $2 $3 $4 $5 $6 $7 $8 $9 X,Y pos of 4 corners*
0 Add a 4 corners polygon primitive as box body*
4,1,4,$2,$3,$4,$5,$6,$7,$8,$9,$2,$3,0*
0 Add four circle primitives for the rounded corners*
1,1,$1+$1,$2,$3*
1,1,$1+$1,$4,$5*
1,1,$1+$1,$6,$7*
1,1,$1+$1,$8,$9*
0 Add four rect primitives between the rounded corners*
20,1,$1+$1,$2,$3,$4,$5,0*
20,1,$1+$1,$4,$5,$6,$7,0*
20,1,$1+$1,$6,$7,$8,$9,0*
20,1,$1+$1,$8,$9,$2,$3,0*%
G04 Aperture macros list end*
%ADD10C,3.200000*%
%ADD11O,1.727200X1.727200*%
%ADD12R,1.727200X1.727200*%
%ADD13R,1.350000X1.350000*%
%ADD14O,1.350000X1.350000*%
%ADD15RoundRect,0.243750X0.456250X-0.243750X0.456250X0.243750X-0.456250X0.243750X-0.456250X-0.243750X0*%
%ADD16R,2.600000X2.600000*%
%ADD17C,2.600000*%
%ADD18RoundRect,0.250000X-0.312500X-0.625000X0.312500X-0.625000X0.312500X0.625000X-0.312500X0.625000X0*%
%ADD19RoundRect,0.250000X-0.625000X0.312500X-0.625000X-0.312500X0.625000X-0.312500X0.625000X0.312500X0*%
%ADD20RoundRect,0.243750X-0.456250X0.243750X-0.456250X-0.243750X0.456250X-0.243750X0.456250X0.243750X0*%
%ADD21R,1.714500X1.800000*%
%ADD22O,1.714500X1.800000*%
%ADD23RoundRect,0.250000X0.625000X-0.312500X0.625000X0.312500X-0.625000X0.312500X-0.625000X-0.312500X0*%
G04 APERTURE END LIST*
D10*
%TO.C,A1*%
X211073600Y-55374800D03*
X259333600Y-56644800D03*
D11*
X211073600Y-69344800D03*
D10*
X259333600Y-131574800D03*
X211073600Y-137924800D03*
D11*
X211073600Y-76964800D03*
X211073600Y-79504800D03*
X259333600Y-135384800D03*
X259333600Y-137924800D03*
X211073600Y-92204800D03*
X211073600Y-94744800D03*
X211073600Y-97284800D03*
X211073600Y-99824800D03*
X211073600Y-102364800D03*
X211073600Y-104904800D03*
X211073600Y-107444800D03*
X211073600Y-109984800D03*
X211073600Y-115064800D03*
X211073600Y-117604800D03*
X211073600Y-120144800D03*
X211073600Y-122684800D03*
X211073600Y-125224800D03*
X211073600Y-127764800D03*
X211073600Y-130304800D03*
X211073600Y-132844800D03*
X259333600Y-65280800D03*
X259333600Y-104904800D03*
X259333600Y-102364800D03*
X259333600Y-99824800D03*
X259333600Y-97284800D03*
X259333600Y-94744800D03*
X259333600Y-92204800D03*
X259333600Y-89664800D03*
X259333600Y-87124800D03*
X259333600Y-83060800D03*
X259333600Y-80520800D03*
X259333600Y-77980800D03*
X259333600Y-75440800D03*
X259333600Y-72900800D03*
X259333600Y-70360800D03*
X259333600Y-109984800D03*
X259333600Y-112524800D03*
X259333600Y-115064800D03*
X259333600Y-117604800D03*
X259333600Y-120144800D03*
X259333600Y-122684800D03*
X259333600Y-125224800D03*
X259333600Y-127764800D03*
X256793600Y-135384800D03*
X256793600Y-137924800D03*
X254253600Y-135384800D03*
X254253600Y-137924800D03*
X251713600Y-135384800D03*
X251713600Y-137924800D03*
X249173600Y-135384800D03*
X249173600Y-137924800D03*
X246633600Y-135384800D03*
X246633600Y-137924800D03*
X244093600Y-135384800D03*
X244093600Y-137924800D03*
X241553600Y-135384800D03*
X241553600Y-137924800D03*
X239013600Y-135384800D03*
X239013600Y-137924800D03*
X236473600Y-135384800D03*
X236473600Y-137924800D03*
X233933600Y-135384800D03*
X233933600Y-137924800D03*
X231393600Y-135384800D03*
X231393600Y-137924800D03*
X228853600Y-135384800D03*
X228853600Y-137924800D03*
X226313600Y-135384800D03*
X226313600Y-137924800D03*
X223773600Y-135384800D03*
X223773600Y-137924800D03*
X221233600Y-135384800D03*
X221233600Y-137924800D03*
X218693600Y-135384800D03*
X218693600Y-137924800D03*
D12*
X259333600Y-67820800D03*
X211073600Y-82044800D03*
X211073600Y-84584800D03*
X216153600Y-135384800D03*
X216153600Y-137924800D03*
D11*
X211073600Y-71884800D03*
X211073600Y-74424800D03*
X259333600Y-60200800D03*
X259333600Y-62740800D03*
X211073600Y-87124800D03*
%TD*%
D13*
%TO.C,Real_Time_Clock*%
X245961400Y-132156200D03*
D14*
X247961400Y-132156200D03*
X249961400Y-132156200D03*
X251961400Y-132156200D03*
%TD*%
D15*
%TO.C,V_LED4*%
X232613200Y-116281200D03*
X232613200Y-114406200D03*
%TD*%
D16*
%TO.C,UV_Leds/IR_LEDs*%
X251714000Y-74422000D03*
D17*
X251714000Y-69422000D03*
X251714000Y-64422000D03*
X251714000Y-59422000D03*
X251714000Y-54422000D03*
%TD*%
D16*
%TO.C,Rotary_Encoder1*%
X218694000Y-59182000D03*
D17*
X218694000Y-64182000D03*
X218694000Y-69182000D03*
X218694000Y-74182000D03*
%TD*%
D16*
%TO.C,Rotary_Encoder2*%
X218694000Y-82042000D03*
D17*
X218694000Y-87042000D03*
X218694000Y-92042000D03*
X218694000Y-97042000D03*
%TD*%
D15*
%TO.C,V_LED6*%
X217393200Y-116348700D03*
X217393200Y-114473700D03*
%TD*%
D18*
%TO.C,R1*%
X237206600Y-89458800D03*
X240131600Y-89458800D03*
%TD*%
D19*
%TO.C,V_LED_R3*%
X232660000Y-125580000D03*
X232660000Y-128505000D03*
%TD*%
D20*
%TO.C,V_LED1*%
X217424000Y-118922800D03*
X217424000Y-120797800D03*
%TD*%
D18*
%TO.C,R6*%
X237200000Y-62030000D03*
X240125000Y-62030000D03*
%TD*%
D20*
%TO.C,V_LED2*%
X225040000Y-118922500D03*
X225040000Y-120797500D03*
%TD*%
D16*
%TO.C,Other*%
X239174000Y-117602000D03*
D17*
X244174000Y-117602000D03*
X249174000Y-117602000D03*
X254174000Y-117602000D03*
%TD*%
D21*
%TO.C,Q3*%
X227685600Y-59994800D03*
D22*
X229971600Y-59994800D03*
X232257600Y-59994800D03*
%TD*%
D18*
%TO.C,R2*%
X237210600Y-80314800D03*
X240135600Y-80314800D03*
%TD*%
D19*
%TO.C,V_LED_R2*%
X225080000Y-125690000D03*
X225080000Y-128615000D03*
%TD*%
D23*
%TO.C,V_LED_R4*%
X232562400Y-110062200D03*
X232562400Y-107137200D03*
%TD*%
D20*
%TO.C,V_LED3*%
X232664000Y-118930000D03*
X232664000Y-120805000D03*
%TD*%
D18*
%TO.C,R4*%
X237210600Y-71170800D03*
X240135600Y-71170800D03*
%TD*%
D21*
%TO.C,Q2*%
X227685600Y-69138800D03*
D22*
X229971600Y-69138800D03*
X232257600Y-69138800D03*
%TD*%
D18*
%TO.C,R3*%
X237206600Y-85140800D03*
X240131600Y-85140800D03*
%TD*%
%TO.C,R5*%
X237159800Y-75996800D03*
X240084800Y-75996800D03*
%TD*%
%TO.C,R7*%
X237147500Y-66850000D03*
X240072500Y-66850000D03*
%TD*%
D19*
%TO.C,V_LED_R1*%
X217520000Y-125630000D03*
X217520000Y-128555000D03*
%TD*%
D23*
%TO.C,V_LED_R5*%
X224993200Y-110062200D03*
X224993200Y-107137200D03*
%TD*%
%TO.C,V_LED_R6*%
X217373200Y-110072900D03*
X217373200Y-107147900D03*
%TD*%
D15*
%TO.C,V_LED5*%
X224983200Y-116301200D03*
X224983200Y-114426200D03*
%TD*%
D21*
%TO.C,Q4*%
X227685600Y-78435200D03*
D22*
X229971600Y-78435200D03*
X232257600Y-78435200D03*
%TD*%
D21*
%TO.C,Q1*%
X227685600Y-87426800D03*
D22*
X229971600Y-87426800D03*
X232257600Y-87426800D03*
%TD*%
D16*
%TO.C,Cameras/DAQ/Opto*%
X251714000Y-107122000D03*
D17*
X251714000Y-102122000D03*
X251714000Y-97122000D03*
X251714000Y-92122000D03*
X251714000Y-87122000D03*
X251714000Y-82122000D03*
%TD*%
D18*
%TO.C,R8*%
X237210000Y-57710000D03*
X240135000Y-57710000D03*
%TD*%
M02*
